<svg xmlns="http://www.w3.org/2000/svg" width="26" height="17" viewBox="0 0 26 17">
  <g id="Polygon_1" data-name="Polygon 1" transform="translate(26 17) rotate(180)" fill="#665546">
    <path d="M 21.95282936096191 16.49999618530273 L 4.047170162200928 16.49999618530273 C 3.463639974594116 16.49999618530273 2.960930109024048 16.18767547607422 2.702409982681274 15.66453647613525 C 2.44389009475708 15.14140605926514 2.501169919967651 14.55234622955322 2.855629920959473 14.08881568908691 L 11.8084602355957 2.381286144256592 C 12.09461975097656 2.007076025009155 12.52892017364502 1.792456150054932 13 1.792456150054932 C 13.47107982635498 1.792456150054932 13.90536975860596 2.007076025009155 14.19153022766113 2.38127613067627 L 23.14436912536621 14.08882617950439 C 23.49883079528809 14.55235576629639 23.55611038208008 15.14140605926514 23.2975902557373 15.66454601287842 C 23.0390796661377 16.18767547607422 22.5363597869873 16.49999618530273 21.95282936096191 16.49999618530273 Z" stroke="none"/>
    <path d="M 13 2.292455673217773 C 12.68595027923584 2.292455673217773 12.39640998840332 2.43553638458252 12.20563983917236 2.685006141662598 L 3.252809524536133 14.39254570007324 C 3.016500473022461 14.70156574249268 2.978309631347656 15.09427642822266 3.150659561157227 15.44302558898926 C 3.322999954223633 15.79178619384766 3.658149719238281 15.99999618530273 4.047170639038086 15.99999618530273 L 21.95282936096191 15.99999618530273 C 22.34185028076172 15.99999618530273 22.6769905090332 15.79178619384766 22.84934043884277 15.44302558898926 C 23.02169036865234 15.09426593780518 22.98349952697754 14.70156574249268 22.74719047546387 14.39254570007324 L 13.79434967041016 2.684995651245117 C 13.60358047485352 2.43553638458252 13.31404972076416 2.292455673217773 13 2.292455673217773 M 13.00000286102295 1.292455673217773 C 13.59423637390137 1.292455673217773 14.1884651184082 1.55415153503418 14.58870983123779 2.077546119689941 L 23.54154968261719 13.78509616851807 C 24.54792022705078 15.10112571716309 23.60953903198242 16.99999618530273 21.95282936096191 16.99999618530273 L 4.047170639038086 16.99999618530273 C 2.390449523925781 16.99999618530273 1.452079772949219 15.10112571716309 2.458450317382812 13.78509616851807 L 11.41127967834473 2.077555656433105 C 11.81153011322021 1.554155349731445 12.40576934814453 1.292455673217773 13.00000286102295 1.292455673217773 Z" stroke="none" fill="#665546"/>
  </g>
</svg>
