<svg xmlns="http://www.w3.org/2000/svg" width="24.001" height="21.492" viewBox="0 0 24.001 21.492"><defs><style>.a{fill:#786452;}</style></defs><path class="a" d="M4.756,20.35a14.179,14.179,0,0,1-1.348-5.927V14.28H7.739v1.714a5.153,5.153,0,0,0,.568,2.5,2.011,2.011,0,0,1-.072,2,1.991,1.991,0,0,1-1.7,1A1.943,1.943,0,0,1,4.756,20.35ZM18.6,19.063l-3.62-3.784a6.443,6.443,0,0,0-4.543-1.927H10.3V6.212h.212a6.155,6.155,0,0,0,4.543-1.927L18.671.5A1.406,1.406,0,0,1,19.807,0a1.573,1.573,0,0,1,1.562,1.713V17.851a1.672,1.672,0,0,1-1.632,1.713A1.407,1.407,0,0,1,18.6,19.063ZM3.408,13.423A3.5,3.5,0,0,1,0,9.854a3.5,3.5,0,0,1,3.408-3.57H9.441v7.14ZM22.292,6.712A3.4,3.4,0,0,1,24,9.782a3.535,3.535,0,0,1-1.7,3.069Z"/></svg>