<svg id="Layer_1" data-name="Layer 1" xmlns="http://www.w3.org/2000/svg" viewBox="0 0 28.56 28.33"><defs><style>.cls-1{fill:#d01c65}</style></defs><title>PHONE_19x19</title><path class="cls-1" d="M11.47,18.49c3.54,3.58,5.59,5.16,7,3.87s2.31-3.16,5.94-.41,1.88,4.45,1.2,5.21a4.77,4.77,0,0,1-4,2.26c-2.43,0-8.08-1.82-14.26-8.41S.55,9.53.76,8,2.42,5.2,3.57,4.35,6.35,3.47,8.1,5.73s2.11,3.66,1,4.74S7,12.49,7.81,13.9a47.54,47.54,0,0,0,3.66,4.59" transform="translate(-0.72 -1.08)"/><path class="cls-1" d="M22.5,16.88a1.33,1.33,0,0,1-1.32-1.21,7.46,7.46,0,0,0-6.34-6.54,1.33,1.33,0,0,1-1.11-1.52A1.35,1.35,0,0,1,15.25,6.5a10.07,10.07,0,0,1,8.57,8.93,1.32,1.32,0,0,1-1.2,1.44H22.5" transform="translate(-0.72 -1.08)"/><path class="cls-1" d="M27.85,18.11a1.34,1.34,0,0,1-1.33-1.33c0-.19,0-.38,0-.61.13-1.4.4-4.31-3.58-8.53-4.58-4.86-8.74-3.82-8.79-3.81a1.33,1.33,0,0,1-.68-2.57c.23-.06,5.75-1.44,11.4,4.55,4.81,5.1,4.45,9,4.3,10.61a3,3,0,0,0,0,.36,1.34,1.34,0,0,1-1.33,1.33" transform="translate(-0.72 -1.08)"/></svg>