<svg xmlns="http://www.w3.org/2000/svg" width="24" height="19.964" viewBox="0 0 24 19.964"><defs><style>.a{fill:#1da1f2;}</style></defs><path class="a" d="M133.084,136.436a9.483,9.483,0,0,1-1.655.558,5.157,5.157,0,0,0,1.362-2.169.271.271,0,0,0-.4-.315,9.545,9.545,0,0,1-2.53,1.045.639.639,0,0,1-.158.02.671.671,0,0,1-.443-.169,5.174,5.174,0,0,0-3.424-1.292,5.529,5.529,0,0,0-1.639.253,5.013,5.013,0,0,0-3.379,3.612,5.52,5.52,0,0,0-.123,1.905.186.186,0,0,1-.047.145.192.192,0,0,1-.143.065h-.018a13.567,13.567,0,0,1-9.325-4.982.271.271,0,0,0-.443.035,5.181,5.181,0,0,0,.842,6.29,4.641,4.641,0,0,1-1.18-.457.271.271,0,0,0-.4.233,5.181,5.181,0,0,0,3.022,4.773H112.9a4.63,4.63,0,0,1-.872-.083.271.271,0,0,0-.309.348,5.185,5.185,0,0,0,4.1,3.527,9.548,9.548,0,0,1-5.348,1.624h-.6a.4.4,0,0,0-.387.3.41.41,0,0,0,.2.453,14.2,14.2,0,0,0,7.136,1.924,14.392,14.392,0,0,0,6.1-1.294,13.466,13.466,0,0,0,4.462-3.343,14.657,14.657,0,0,0,2.732-4.576,14.456,14.456,0,0,0,.929-5.008v-.079a.881.881,0,0,1,.33-.685,10.231,10.231,0,0,0,2.057-2.258.27.27,0,0,0-.334-.4Z" transform="translate(-109.466 -134.114)"/></svg>