<svg xmlns="http://www.w3.org/2000/svg" width="32" height="32" viewBox="0 0 32 32"><defs><style>.a{fill:#4e598f;}.b{fill:#fff;}</style></defs><g transform="translate(0 0.424)"><circle class="a" cx="16" cy="16" r="16" transform="translate(0 -0.424)"/><path class="b" d="M124.379,109.466H111.79a2.322,2.322,0,0,0-2.322,2.322v12.589a2.322,2.322,0,0,0,2.322,2.322H118l.011-6.158h-1.6a.377.377,0,0,1-.377-.376l-.008-1.985a.378.378,0,0,1,.378-.379H118v-1.918a3.134,3.134,0,0,1,3.345-3.438h1.629a.378.378,0,0,1,.378.378V114.5a.377.377,0,0,1-.377.378h-1c-1.08,0-1.289.513-1.289,1.266V117.8h2.373a.377.377,0,0,1,.375.422l-.235,1.985a.377.377,0,0,1-.375.333H120.7l-.011,6.158h3.694a2.322,2.322,0,0,0,2.322-2.322v-12.59a2.322,2.322,0,0,0-2.322-2.322Z" transform="translate(-102.085 -102.653)"/></g></svg>