<svg xmlns="http://www.w3.org/2000/svg" width="32" height="32" viewBox="0 0 32 32"><defs><style>.a{fill:#ff9300;}.b{fill:#fff;}</style></defs><g transform="translate(0 0)"><circle class="a" cx="16" cy="16" r="16" transform="translate(0 0)"/><path class="b" d="M14.854,0H2.549A2.552,2.552,0,0,0,0,2.549v12.3A2.552,2.552,0,0,0,2.549,17.4h12.3A2.552,2.552,0,0,0,17.4,14.854V2.549A2.552,2.552,0,0,0,14.854,0ZM3.609,15.172a1.5,1.5,0,1,1,1.5-1.5A1.5,1.5,0,0,1,3.609,15.172Zm6.421-1.53c0,.012,0,.023,0,.034s0,.019,0,.028,0,.022,0,.033c-.006.045-.015.088-.026.131l-.007.027c-.007.027-.015.053-.024.079L9.953,14a1.352,1.352,0,0,1-.057.135l-.014.028a1.343,1.343,0,0,1-.158.239c-.014.017-.028.033-.043.049l-.022.024c-.023.024-.047.047-.071.07l-.038.033c-.02.017-.041.033-.062.049l-.026.019c-.03.021-.06.041-.091.06l-.027.016a1.393,1.393,0,0,1-.175.083l-.057.021-.03.01-.034.01-.059.015-.032.007-.024,0-.04.007-.033,0-.032,0-.018,0-.029,0H8.76l-.085,0a1.361,1.361,0,0,1-1.36-1.36A3.573,3.573,0,0,0,3.746,9.969a1.36,1.36,0,0,1,0-2.719,6.282,6.282,0,0,1,5.014,2.5h0l.074.1.067.093.016.022.06.088.064.1.008.013.062.1.064.107q.06.1.116.207c.023.042.045.085.067.128s.035.069.052.1.033.067.048.1l.02.044q.04.089.078.179l.013.032,0,.005c.014.033.027.066.039.1s.027.07.04.106c0,.01.007.019.011.029.012.034.024.068.036.1s.016.048.024.072.024.073.035.109.025.081.036.122l.014.048.022.083.013.049c.016.063.031.127.045.191,0,.018.008.036.012.054.01.045.019.09.027.135s.016.084.023.127l0,.013c0,.025.008.05.012.075s.008.052.012.078.007.052.011.079,0,.038.007.058c.006.049.012.1.016.149,0,.022,0,.044.006.065s0,.044.005.065a.041.041,0,0,1,0,.006c0,.041.006.083.008.125,0,0,0,.006,0,.008,0,.027,0,.053,0,.08s0,.048,0,.072c0,.005,0,.011,0,.016,0,.024,0,.049,0,.073s0,.054,0,.081S10.033,13.608,10.03,13.642ZM13.773,14.9a1.361,1.361,0,0,1-1.36-1.36,8.639,8.639,0,0,0-.782-3.608q-.044-.1-.09-.191c-.062-.126-.126-.251-.194-.374q-.076-.139-.158-.275-.055-.091-.111-.18-.085-.134-.175-.265A8.77,8.77,0,0,0,9.875,7.409L9.8,7.333,9.72,7.258l-.079-.074L9.562,7.11l-.079-.07-.1-.083L9.319,6.9l-.063-.053L9.2,6.8l-.1-.079-.051-.04-.072-.055c-.068-.052-.138-.1-.207-.152L8.76,6.465h0a8.6,8.6,0,0,0-5.014-1.6,1.36,1.36,0,1,1,0-2.719A11.339,11.339,0,0,1,8.76,3.308q.313.153.616.327.253.143.5.3l.1.064q.2.127.386.264c.032.022.063.045.095.069l.094.07.093.071q.142.109.281.222l.069.057.082.068.1.084L11.278,5l.082.073L11.5,5.2l.073.069.068.065.069.067.085.084q.1.1.2.2t.193.208c.064.07.126.14.187.211q.139.161.27.325t.257.333q.125.168.244.341t.23.349q.112.176.217.356.07.12.137.241l.066.122q.066.122.128.246a11.336,11.336,0,0,1,1.207,5.115A1.361,1.361,0,0,1,13.773,14.9Z" transform="translate(7.03 7.651)"/></g></svg>