<svg xmlns="http://www.w3.org/2000/svg" width="222.35" height="63.197" viewBox="0 0 222.35 63.197"><defs><style>.a{fill:#fff;}</style></defs><g transform="translate(0.029 0.003)"><path class="a" d="M228.139,43a1.5,1.5,0,0,1-1.549-1.409v-.447a1.549,1.549,0,0,1,3.082,0,4.023,4.023,0,0,1,0,.447A1.491,1.491,0,0,1,228.139,43Zm1.218-1.881a1.243,1.243,0,1,0-2.486,0,2.487,2.487,0,0,0,0,.5,1.243,1.243,0,0,0,2.486,0,2.484,2.484,0,0,0,0-.5Zm-1.2.505a.108.108,0,0,0-.116-.058h-.24v.489a.157.157,0,1,1-.315,0V40.712a.191.191,0,0,1,.215-.2h.539a.547.547,0,0,1,.613.522.464.464,0,0,1-.381.472l.4.456a.149.149,0,0,1,0,.1c0,.083-.066.141-.174.141a.157.157,0,0,1-.108-.058Zm.041-.323c.24,0,.323-.108.323-.257s-.091-.265-.307-.265H227.8V41.3Z" transform="translate(-39.451 -7.627)"/><path class="a" d="M76.593,71.379v2.569a.983.983,0,1,1-1.964,0V66.035a1.218,1.218,0,0,1,1.309-1.276H78.88a3.314,3.314,0,0,1,3.5,3.314,2.867,2.867,0,0,1-1.864,2.966l1.856,2.229a1.019,1.019,0,0,1-.05,1.375.994.994,0,0,1-1.417,0L78.59,71.835a.9.9,0,0,0-.829-.456Zm2.08-1.815c1.284,0,1.723-.555,1.723-1.433s-.53-1.45-1.657-1.45H76.593v2.883Z" transform="translate(-13.402 -11.912)"/><path class="a" d="M93.016,64.76a.928.928,0,0,1,.945.936.969.969,0,0,1-.945.92H88.823v2.27h4.019a.878.878,0,0,1,.895.887.928.928,0,0,1-.895.9H88.823v2.312h4.217a.978.978,0,0,1,.953.936.936.936,0,0,1-.953.978H88.276a1.351,1.351,0,0,1-1.417-1.425V66.168a1.342,1.342,0,0,1,1.417-1.409Z" transform="translate(-15.499 -11.913)"/><path class="a" d="M101.387,70.728c-2.37-.505-3.439-1.375-3.439-3.115s1.566-3.024,3.662-3.024a5.162,5.162,0,0,1,3.132.829.936.936,0,0,1,.34.737.953.953,0,0,1-.928.978,1.657,1.657,0,0,1-.721-.207,4.143,4.143,0,0,0-1.781-.4c-1.243,0-1.732.5-1.732,1.1s.572.92,2.038,1.193c2.535.472,3.654,1.276,3.654,3.115s-1.4,3.115-3.845,3.115a5.659,5.659,0,0,1-3.538-1.011,1.21,1.21,0,0,1-.53-.895.986.986,0,0,1,.994-1,1.127,1.127,0,0,1,.729.273,4.052,4.052,0,0,0,2.411.721c1.1,0,1.79-.423,1.79-1.127S102.821,71,101.387,70.728Z" transform="translate(-17.357 -11.882)"/><path class="a" d="M115.964,64.76a.928.928,0,0,1,.945.936.978.978,0,0,1-.945.92h-4.193v2.27h3.994a.87.87,0,0,1,.887.887.928.928,0,0,1-.887.928h-4.019v2.312h4.217a.969.969,0,0,1,.945.936.936.936,0,0,1-.92.953h-4.764a1.351,1.351,0,0,1-1.425-1.425V66.168a1.351,1.351,0,0,1,1.425-1.409Z" transform="translate(-19.431 -11.913)"/><path class="a" d="M126.861,71.965h-4l-.829,2.312a.986.986,0,0,1-1.276.555,1.019,1.019,0,0,1-.547-1.276l2.726-7.573a2,2,0,0,1,3.8,0l2.7,7.573a1.019,1.019,0,0,1-.547,1.268.978.978,0,0,1-1.276-.547Zm-3.414-1.748h2.809l-1.16-3.43a.257.257,0,0,0-.232-.191.249.249,0,0,0-.24.191Z" transform="translate(-21.205 -11.885)"/><path class="a" d="M135.663,71.379v2.569a1.011,1.011,0,0,1-.969,1.019,1.036,1.036,0,0,1-.994-1.019V66.035a1.218,1.218,0,0,1,1.309-1.276h2.941a3.314,3.314,0,0,1,3.5,3.314,2.867,2.867,0,0,1-1.873,2.966l1.823,2.262a.99.99,0,1,1-1.425,1.375L137.7,71.835a.911.911,0,0,0-.829-.456Zm2.088-1.815c1.276,0,1.715-.555,1.715-1.433s-.53-1.45-1.657-1.45h-2.154v2.883Z" transform="translate(-23.528 -11.912)"/><path class="a" d="M151.891,71.881a.911.911,0,0,1,.829-.58.978.978,0,0,1,.961.92,1.343,1.343,0,0,1-.1.53,4.019,4.019,0,0,1-3.762,2.287,4.259,4.259,0,0,1-4.309-4.077,15.046,15.046,0,0,1,0-2.287,4.259,4.259,0,0,1,4.309-4.085,4.01,4.01,0,0,1,3.762,2.279,1.367,1.367,0,0,1,.1.53.953.953,0,0,1-1.823.348,2.254,2.254,0,0,0-2.038-1.268,2.37,2.37,0,0,0-2.353,2.444,13.5,13.5,0,0,0,0,1.831,2.312,2.312,0,0,0,2.353,2.386,2.254,2.254,0,0,0,2.071-1.259Z" transform="translate(-25.545 -11.884)"/><path class="a" d="M158.05,65.693a.994.994,0,0,1,.986-1,.978.978,0,0,1,.978,1v3.173h4.549V65.693a.986.986,0,1,1,1.972,0V73.92a.994.994,0,0,1-.994,1.019,1.019,1.019,0,0,1-.978-1.019V70.788h-4.549v3.149a.961.961,0,0,1-.978,1,1.011,1.011,0,0,1-.986-1Z" transform="translate(-27.702 -11.901)"/><path class="a" d="M177,65.693a1,1,0,0,1,.986-1,.978.978,0,0,1,.978,1V73.92a.986.986,0,0,1-.978,1.019A1.011,1.011,0,0,1,177,73.92Z" transform="translate(-30.951 -11.901)"/><path class="a" d="M189.46,72.18h0c0-.945-.041-1.417-.041-2.262V65.693a.986.986,0,0,1,.978-1,.969.969,0,0,1,.969,1v7.739a1.425,1.425,0,0,1-1.417,1.508,1.6,1.6,0,0,1-1.409-.878L184.6,67.3h0v6.645a.969.969,0,0,1-.961,1.019,1.019,1.019,0,0,1-.986-1.019v-7.59a1.516,1.516,0,0,1,1.558-1.657,1.549,1.549,0,0,1,1.409.829Z" transform="translate(-31.918 -11.901)"/><path class="a" d="M199.577,70.731c-2.37-.489-3.447-1.359-3.447-3.1s1.566-3.024,3.662-3.024a5.137,5.137,0,0,1,3.124.829.936.936,0,0,1,.348.737.953.953,0,0,1-.936.978,1.608,1.608,0,0,1-.713-.207,4.143,4.143,0,0,0-1.781-.4c-1.251,0-1.74.5-1.74,1.1s.58.92,2.038,1.193c2.544.472,3.662,1.276,3.662,3.115s-1.409,3.115-3.845,3.115a5.643,5.643,0,0,1-3.53-1.027,1.21,1.21,0,0,1-.53-.895.978.978,0,0,1,.986-1,1.143,1.143,0,0,1,.762.24,4.052,4.052,0,0,0,2.411.721c1.1,0,1.79-.423,1.79-1.127S201.011,71,199.577,70.731Z" transform="translate(-34.189 -11.886)"/><path class="a" d="M209.768,66.682h-2.3a.978.978,0,0,1-1-.961.961.961,0,0,1,1-.961h6.562a.969.969,0,0,1,1,.961.994.994,0,0,1-1,.961h-2.3v7.267a.969.969,0,0,1-.961,1,1.019,1.019,0,0,1-1-1Z" transform="translate(-36.002 -11.913)"/><path class="a" d="M218.88,65.693a1.011,1.011,0,0,1,.994-1,.978.978,0,0,1,.978,1V73.92a.994.994,0,0,1-.978,1.019,1.011,1.011,0,0,1-.994-1.019Z" transform="translate(-38.13 -11.901)"/><path class="a" d="M226.636,66.682h-2.3a.986.986,0,0,1-1.011-.961.969.969,0,0,1,1.011-.961h6.554a.961.961,0,0,1,1,.961.994.994,0,0,1-1,.961h-2.3v7.267a.969.969,0,0,1-.961,1,1.019,1.019,0,0,1-1-1Z" transform="translate(-38.893 -11.913)"/><path class="a" d="M244.3,70.549a4.333,4.333,0,1,1-8.667,0V65.677a1,1,0,0,1,.986-1,.961.961,0,0,1,.978,1v4.971a2.378,2.378,0,1,0,4.739,0V65.677a.986.986,0,1,1,1.964,0Z" transform="translate(-41.001 -11.886)"/><path class="a" d="M251.314,66.682h-2.3A.978.978,0,0,1,248,65.721a.961.961,0,0,1,1-.961h6.562a.969.969,0,0,1,1,.961.994.994,0,0,1-1,.961h-2.3v7.267a.969.969,0,0,1-.961,1,1.019,1.019,0,0,1-.986-1Z" transform="translate(-43.121 -11.913)"/><path class="a" d="M266.6,64.76a.928.928,0,0,1,.936.936.978.978,0,0,1-.936.92h-4.184v2.27h4.019a.87.87,0,0,1,.887.887.928.928,0,0,1-.887.9h-4.019v2.312h4.217a.969.969,0,0,1,.945.936.936.936,0,0,1-.945.978h-4.764a1.351,1.351,0,0,1-1.425-1.425V66.168a1.351,1.351,0,0,1,1.425-1.409Z" transform="translate(-45.253 -11.913)"/><path class="a" d="M29.48,47.867h5.958V36.35a37.361,37.361,0,0,1-5.958,4.4Z" transform="translate(-5.663 -7.044)"/><path class="a" d="M44.516,11.768V22.125a16.77,16.77,0,0,0-7.176-1.607,17.442,17.442,0,0,0-6.836,1.45v-10.2H24.547V26.326l-.522.423a10.937,10.937,0,1,1-6.4-19.811,10.772,10.772,0,0,1,5.85,1.723V2.032a16.9,16.9,0,1,0,.547,31.486c.166-.066.34-.149.522-.24a37.361,37.361,0,0,0,5.958-4.4l.075-.066a10.912,10.912,0,0,1,13.937.356V41.8h5.958V11.768Z" transform="translate(-0.73 -0.98)"/><path class="a" d="M14.1,21.161a2.751,2.751,0,0,0,0-.737c0-.53-.091-1.052-.141-1.583a5.626,5.626,0,0,1,.53-3.729,3.936,3.936,0,0,1,.572-.7H15.1A5.145,5.145,0,0,1,18.5,13a5.543,5.543,0,0,1,1.773.224,9.943,9.943,0,0,1,1.657.63,4.325,4.325,0,0,1,.663.431,2.212,2.212,0,0,1,.53.547,1.914,1.914,0,0,1,.257,1.831.77.77,0,0,1-.083.166l-.075.141a2.966,2.966,0,0,0,0-.331.5.5,0,0,1-.24.348h0a1.433,1.433,0,0,1-.083.307,2.27,2.27,0,0,0-.249.58v.1c.24,0,.265-.149.265-.066s-.2.166-.273.2a1.955,1.955,0,0,0,.423.911,3.538,3.538,0,0,1,.4.4c.182.265-.3.522-.381.638.075.174.124.2.157.3s-.315.215-.24.331.116.282,0,.365c-.315.224-.265.29-.174.762s-.182.671-.539.746-1.243-.215-1.533,0h0c-.655.505-1.177,1.566.53,4.019.133.191.613.762.3.762-1.284,0-3.389-2.759-6.4-.961-.389.232,1.326-2.2,1.583-3.472a1.657,1.657,0,0,1-.829-.4.58.58,0,0,0,.265.365h-.273a1.657,1.657,0,0,1-1.027-.282.978.978,0,0,1-.34-.472,2.1,2.1,0,0,1-.066-.472.58.58,0,0,1-.232.3.729.729,0,0,1-.53.108,2.038,2.038,0,0,0,.356-.887Z" transform="translate(-2.965 -3.04)"/><path class="a" d="M81.673,23.409a1.135,1.135,0,0,1,1.069-.7A1.2,1.2,0,0,1,83.9,23.84a1.582,1.582,0,0,1-.124.655,4.971,4.971,0,0,1-4.623,2.825,5.27,5.27,0,0,1-5.336-5.054,17.865,17.865,0,0,1,0-2.825,5.278,5.278,0,0,1,5.336-5.071,4.971,4.971,0,0,1,4.657,2.825,1.657,1.657,0,0,1,.124.663,1.177,1.177,0,0,1-2.262.423,2.784,2.784,0,0,0-2.486-1.566,2.931,2.931,0,0,0-2.917,3.024,14.913,14.913,0,0,0,0,2.279,2.857,2.857,0,0,0,2.917,2.95,2.784,2.784,0,0,0,2.486-1.558Z" transform="translate(-13.254 -3.275)"/><path class="a" d="M91.216,18.2a3.654,3.654,0,0,1,2.237-.688c2.262,0,3.6,1.351,3.6,3.894v4.565a1.193,1.193,0,0,1-2.386,0V21.516a1.508,1.508,0,0,0-1.6-1.657,2.61,2.61,0,0,0-1.848.746v5.419a1.193,1.193,0,0,1-1.177,1.235,1.235,1.235,0,0,1-1.21-1.235V15.566a1.185,1.185,0,0,1,1.193-1.226,1.2,1.2,0,0,1,1.193,1.226Z" transform="translate(-15.837 -3.271)"/><path class="a" d="M102.969,16.47a1.276,1.276,0,0,1-1.259-1.3,1.226,1.226,0,0,1,1.259-1.259,1.259,1.259,0,0,1,1.268,1.259A1.3,1.3,0,0,1,102.969,16.47Zm1.193,2.2v7.217a1.2,1.2,0,0,1-1.193,1.235,1.226,1.226,0,0,1-1.185-1.235V18.674a1.177,1.177,0,0,1,1.185-1.226,1.193,1.193,0,0,1,1.193,1.226Z" transform="translate(-18.045 -3.197)"/><path class="a" d="M110.256,15.6V25.968a1.193,1.193,0,0,1-1.193,1.235,1.226,1.226,0,0,1-1.193-1.235V15.6a1.2,1.2,0,0,1,1.193-1.243A1.218,1.218,0,0,1,110.256,15.6Z" transform="translate(-19.1 -3.274)"/><path class="a" d="M117.425,17.472a5.8,5.8,0,0,1,2.1.439V15.566a1.2,1.2,0,0,1,1.193-1.226,1.185,1.185,0,0,1,1.193,1.226V25.31a.87.87,0,0,1-.431.829,6.869,6.869,0,0,1-3.729,1.1,3.936,3.936,0,0,1-4.217-3.7,17.4,17.4,0,0,1,0-2.486,3.637,3.637,0,0,1,3.894-3.588Zm.373,7.5a3.24,3.24,0,0,0,1.723-.547v-4.2a4.01,4.01,0,0,0-1.864-.481,1.607,1.607,0,0,0-1.748,1.723,15.083,15.083,0,0,0,0,1.732,1.707,1.707,0,0,0,1.889,1.773Z" transform="translate(-20.063 -3.271)"/><path class="a" d="M132.4,19.487a1.119,1.119,0,0,1-1.119,1.119c-.414,0-.829-.174-1.334-.157s-.928.331-.928,1.152v5.038a1.185,1.185,0,0,1-1.193,1.21,1.2,1.2,0,0,1-1.193-1.21V21.161a2.819,2.819,0,0,1,3.132-3.041,6.993,6.993,0,0,1,1.533.141,1.268,1.268,0,0,1,1.1,1.226Z" transform="translate(-22.316 -3.918)"/><path class="a" d="M143.142,22.64a1.094,1.094,0,0,1-1.226,1.185h-4.731V24c0,1.119.829,1.723,2.038,1.723a5.394,5.394,0,0,0,1.906-.389,1.069,1.069,0,0,1,1.566.978,1.1,1.1,0,0,1-.6.994,6.264,6.264,0,0,1-2.933.621,4.01,4.01,0,0,1-4.284-3.77,16.5,16.5,0,0,1,0-2.221,3.977,3.977,0,0,1,4.193-3.787,3.869,3.869,0,0,1,4.077,4.143Zm-2.486-.431c.124,0,.2-.066.2-.215a1.657,1.657,0,0,0-1.781-1.806,1.773,1.773,0,0,0-1.881,2.022Z" transform="translate(-23.723 -3.922)"/><path class="a" d="M155.6,26.617a1.193,1.193,0,0,1-1.193,1.235,1.226,1.226,0,0,1-1.193-1.235v-4.5a1.574,1.574,0,0,0-1.723-1.657,3.563,3.563,0,0,0-1.74.423v5.742a1.193,1.193,0,0,1-1.193,1.235,1.226,1.226,0,0,1-1.193-1.235V20a.9.9,0,0,1,.423-.87,6.778,6.778,0,0,1,3.77-.978c2.668,0,4.043,1.4,4.043,3.894Z" transform="translate(-25.87 -3.923)"/><path class="a" d="M161.595,16.522a4.193,4.193,0,0,1-.514,2.138,1.3,1.3,0,0,1-1.127.713.978.978,0,0,1-.994-.945c0-.53.481-.829.481-1.8V15.6a1.044,1.044,0,0,1,1.069-1.052,1.061,1.061,0,0,1,1.085,1.052Z" transform="translate(-27.858 -3.307)"/><path class="a" d="M170.445,24.8c0,1.989-1.657,3.091-3.712,3.091a5.137,5.137,0,0,1-3.4-1.027,1.11,1.11,0,0,1-.215-1.483,1.094,1.094,0,0,1,1.549-.207,3.869,3.869,0,0,0,2.113.58c.928,0,1.351-.331,1.351-.829s-.282-.663-1.027-.829-.63-.124-1.317-.307c-1.458-.373-2.6-1.185-2.6-2.718,0-1.922,1.549-2.966,3.629-2.966a4.872,4.872,0,0,1,2.9.829,1.11,1.11,0,0,1,.108,1.583,1.259,1.259,0,0,1-1.549.141,3.82,3.82,0,0,0-1.541-.389c-.895,0-1.268.34-1.268.762s.265.63,1.069.829l1.259.282C169.616,22.526,170.445,23.4,170.445,24.8Z" transform="translate(-28.539 -3.916)"/><path class="a" d="M179.825,15.743a1.226,1.226,0,0,1,1.226-1.243,1.21,1.21,0,0,1,1.21,1.243v3.936H187.9V15.743A1.226,1.226,0,0,1,189.1,14.5a1.21,1.21,0,0,1,1.226,1.243V25.934A1.218,1.218,0,0,1,189.08,27.2a1.251,1.251,0,0,1-1.21-1.259V22.065h-5.634v3.894a1.2,1.2,0,0,1-1.21,1.243,1.235,1.235,0,0,1-1.226-1.243Z" transform="translate(-31.431 -3.298)"/><path class="a" d="M199.689,27.9a4.027,4.027,0,0,1-4.267-3.613,21.712,21.712,0,0,1,0-2.544,4.317,4.317,0,0,1,8.518,0,18.377,18.377,0,0,1,0,2.527A3.994,3.994,0,0,1,199.689,27.9Zm1.889-5.8a1.757,1.757,0,0,0-1.889-1.723,1.79,1.79,0,0,0-1.9,1.723,12.783,12.783,0,0,0,0,1.781,1.906,1.906,0,0,0,3.787,0,15.97,15.97,0,0,0,0-1.765Z" transform="translate(-34.102 -3.92)"/><path class="a" d="M215.344,24.8c0,1.989-1.657,3.091-3.72,3.091a5.154,5.154,0,0,1-3.4-1.027,1.127,1.127,0,0,1-.215-1.483,1.094,1.094,0,0,1,1.549-.207,3.919,3.919,0,0,0,2.121.58c.92,0,1.351-.331,1.351-.829s-.29-.663-1.036-.829-.621-.124-1.317-.307c-1.458-.373-2.593-1.185-2.593-2.718,0-1.922,1.549-2.966,3.629-2.966a4.889,4.889,0,0,1,2.9.829,1.11,1.11,0,0,1,.108,1.583,1.259,1.259,0,0,1-1.549.141,3.82,3.82,0,0,0-1.549-.389c-.887,0-1.259.34-1.259.762s.265.63,1.069.829l1.259.282C214.474,22.526,215.344,23.4,215.344,24.8Z" transform="translate(-36.235 -3.916)"/><path class="a" d="M223.607,27.9a4.474,4.474,0,0,1-2.03-.447V30.1a1.193,1.193,0,1,1-2.378,0V19.875a.638.638,0,0,1,.3-.6,7.076,7.076,0,0,1,3.894-1.152,3.886,3.886,0,0,1,4.143,3.7,17.081,17.081,0,0,1,0,2.436,3.687,3.687,0,0,1-3.927,3.646Zm-.265-7.457a3.555,3.555,0,0,0-1.765.539v4.193a3.671,3.671,0,0,0,1.8.481,1.657,1.657,0,0,0,1.815-1.707,14.915,14.915,0,0,0,0-1.723,1.707,1.707,0,0,0-1.848-1.815Z" transform="translate(-38.184 -3.917)"/><path class="a" d="M233.359,16.47a1.276,1.276,0,0,1-1.259-1.3,1.226,1.226,0,0,1,1.259-1.259,1.251,1.251,0,0,1,1.259,1.259,1.293,1.293,0,0,1-1.259,1.3Zm1.193,2.2v7.217a1.2,1.2,0,0,1-1.193,1.235,1.226,1.226,0,0,1-1.193-1.235V18.674a1.177,1.177,0,0,1,1.193-1.226,1.2,1.2,0,0,1,1.193,1.226Z" transform="translate(-40.396 -3.197)"/><path class="a" d="M241.338,27.484c-2.2,0-3.2-1.508-3.2-3.5V16.953a1.2,1.2,0,0,1,1.193-1.243,1.218,1.218,0,0,1,1.193,1.243v1.21h2.221a1.052,1.052,0,1,1,0,2.1H240.51V23.93c0,.829.373,1.317,1.152,1.317a4.076,4.076,0,0,0,1.1-.2,1.094,1.094,0,0,1,1.475,1.011,1.119,1.119,0,0,1-.746,1.052,5.676,5.676,0,0,1-2.154.373Z" transform="translate(-41.431 -3.505)"/><path class="a" d="M254.82,26.081a.829.829,0,0,1-.431.829,6.794,6.794,0,0,1-3.745.978c-2.585,0-3.753-1.442-3.753-3.132,0-1.508,1.044-2.9,3.662-2.9a7.457,7.457,0,0,1,1.972.273v-.481c0-.928-.447-1.392-1.657-1.392a5.924,5.924,0,0,0-1.707.307c-1.011.315-1.657-.2-1.657-.928a1.119,1.119,0,0,1,.779-1.085,7.457,7.457,0,0,1,2.618-.439c2.486,0,3.927,1.1,3.927,3.6Zm-2.3-.671V23.819a5.941,5.941,0,0,0-1.781-.282c-.961,0-1.541.481-1.541,1.16s.621,1.185,1.6,1.185a3.082,3.082,0,0,0,1.723-.472Z" transform="translate(-42.931 -3.917)"/><path class="a" d="M261.786,15.6V25.968a1.193,1.193,0,0,1-1.193,1.235,1.226,1.226,0,0,1-1.193-1.235V15.6a1.2,1.2,0,0,1,1.193-1.243,1.218,1.218,0,0,1,1.193,1.243Z" transform="translate(-45.075 -3.274)"/><path class="a" d="M78.108,49.364a4.027,4.027,0,0,1-4.267-3.637,18.618,18.618,0,0,1,0-2.544,4.317,4.317,0,0,1,8.518,0,21.427,21.427,0,0,1,0,2.486A4.01,4.01,0,0,1,78.108,49.364Zm1.881-5.8a1.757,1.757,0,0,0-1.881-1.707A1.8,1.8,0,0,0,76.2,43.581a15.968,15.968,0,0,0,0,1.781,1.8,1.8,0,0,0,1.906,1.723,1.765,1.765,0,0,0,1.881-1.723,12.787,12.787,0,0,0,0-1.781Z" transform="translate(-13.26 -7.596)"/><path class="a" d="M87.333,38.894A2.962,2.962,0,0,1,90.5,35.58a7.3,7.3,0,0,1,1.8.232,1.127,1.127,0,0,1,.92,1.135A1.036,1.036,0,0,1,92.1,37.983c-.389,0-.829-.166-1.367-.166a1.033,1.033,0,0,0-1.011,1.16v.373h2.047a1.069,1.069,0,0,1,1.085,1.069,1.052,1.052,0,0,1-1.085,1.036H89.719v5.908a1.193,1.193,0,0,1-1.193,1.259,1.218,1.218,0,0,1-1.193-1.259V41.455H86.9a1.044,1.044,0,0,1-1.1-1.027,1.061,1.061,0,0,1,1.1-1.069h.431Z" transform="translate(-15.317 -6.912)"/><path class="a" d="M105.094,44.532v2.9a1.259,1.259,0,0,1-1.21,1.259,1.276,1.276,0,0,1-1.235-1.259V37.671a1.516,1.516,0,0,1,1.657-1.583h3.538a4.143,4.143,0,0,1,4.358,4.234c0,2.685-1.906,4.234-4.516,4.234Zm2.486-2.345c1.491,0,2.138-.713,2.138-1.873s-.679-1.864-2.08-1.864h-2.544v3.737Z" transform="translate(-18.205 -6.998)"/><path class="a" d="M118.8,39.637a3.671,3.671,0,0,1,2.237-.7c2.262,0,3.6,1.351,3.6,3.894v4.574a1.193,1.193,0,0,1-2.386,0V42.959a1.508,1.508,0,0,0-1.6-1.657,2.618,2.618,0,0,0-1.848.754v5.419A1.185,1.185,0,0,1,117.62,48.7a1.226,1.226,0,0,1-1.21-1.226V37.043a1.193,1.193,0,0,1,2.386,0Z" transform="translate(-20.565 -6.958)"/><path class="a" d="M130.558,37.939a1.276,1.276,0,0,1-1.268-1.3,1.243,1.243,0,0,1,1.268-1.268,1.259,1.259,0,0,1,1.259,1.268,1.293,1.293,0,0,1-1.259,1.3Zm1.193,2.2V47.36a1.2,1.2,0,0,1-1.193,1.226,1.226,1.226,0,0,1-1.193-1.226V40.143a1.177,1.177,0,0,1,1.193-1.226,1.2,1.2,0,0,1,1.193,1.226Z" transform="translate(-22.772 -6.875)"/><path class="a" d="M137.837,37.063V47.428a1.185,1.185,0,0,1-1.193,1.226,1.218,1.218,0,0,1-1.185-1.226V37.063a1.193,1.193,0,1,1,2.378,0Z" transform="translate(-23.829 -6.944)"/><path class="a" d="M148.84,47.549a.829.829,0,0,1-.431.829,6.861,6.861,0,0,1-3.745.978c-2.585,0-3.753-1.442-3.753-3.132,0-1.516,1.044-2.9,3.662-2.9a7.772,7.772,0,0,1,1.972.265v-.481c0-.92-.447-1.384-1.657-1.384a5.941,5.941,0,0,0-1.707.3c-1.011.323-1.657-.191-1.657-.92a1.11,1.11,0,0,1,.779-1.085,7.457,7.457,0,0,1,2.618-.447c2.486,0,3.927,1.1,3.927,3.613Zm-2.3-.679v-1.6a5.941,5.941,0,0,0-1.781-.282c-.953,0-1.541.481-1.541,1.152s.621,1.193,1.6,1.193a3.041,3.041,0,0,0,1.723-.464Z" transform="translate(-24.764 -7.595)"/><path class="a" d="M156.986,38.932a5.8,5.8,0,0,1,2.1.447V37.035a1.21,1.21,0,0,1,1.193-1.235,1.193,1.193,0,0,1,1.193,1.235v9.744a.87.87,0,0,1-.431.829,6.91,6.91,0,0,1-3.729,1.1,3.936,3.936,0,0,1-4.217-3.7,20.181,20.181,0,0,1,0-2.486,3.646,3.646,0,0,1,3.894-3.588Zm.373,7.507a3.24,3.24,0,0,0,1.723-.555V41.691a3.911,3.911,0,0,0-1.864-.481,1.6,1.6,0,0,0-1.74,1.723,11.948,11.948,0,0,0,0,1.723,1.707,1.707,0,0,0,1.881,1.781Z" transform="translate(-26.846 -6.949)"/><path class="a" d="M174.279,44.07a1.094,1.094,0,0,1-1.235,1.193h-4.731v.182c0,1.119.829,1.723,2.047,1.723a5.394,5.394,0,0,0,1.906-.389,1.069,1.069,0,0,1,1.566.936,1.11,1.11,0,0,1-.6,1,6.289,6.289,0,0,1-2.933.621,4.027,4.027,0,0,1-4.3-3.745,19.951,19.951,0,0,1,0-2.229,3.994,3.994,0,0,1,4.2-3.787,3.878,3.878,0,0,1,4.077,4.143Zm-2.486-.423a.191.191,0,0,0,.2-.215,1.657,1.657,0,0,0-1.781-1.815,1.79,1.79,0,0,0-1.889,2.03Z" transform="translate(-29.059 -7.596)"/><path class="a" d="M180.979,37.073V47.438a1.185,1.185,0,0,1-1.226,1.226,1.226,1.226,0,0,1-1.193-1.226V37.073a1.2,1.2,0,0,1,1.193-1.243,1.218,1.218,0,0,1,1.226,1.243Z" transform="translate(-31.218 -6.954)"/><path class="a" d="M188.937,49.364a4.59,4.59,0,0,1-2.03-.447v2.651a1.193,1.193,0,1,1-2.378,0V41.343a.63.63,0,0,1,.3-.6,7.018,7.018,0,0,1,3.894-1.16,3.911,3.911,0,0,1,4.143,3.7,19.886,19.886,0,0,1,0,2.436,3.7,3.7,0,0,1-3.928,3.646Zm-.265-7.457a3.646,3.646,0,0,0-1.765.53v4.2a3.7,3.7,0,0,0,1.8.481,1.657,1.657,0,0,0,1.815-1.707,14.915,14.915,0,0,0,0-1.723,1.7,1.7,0,0,0-1.848-1.815Z" transform="translate(-32.241 -7.596)"/><path class="a" d="M199.787,39.616a3.679,3.679,0,0,1,2.245-.7c2.254,0,3.588,1.351,3.588,3.894v4.574a1.193,1.193,0,1,1-2.378,0V42.939a1.516,1.516,0,0,0-1.607-1.657,2.618,2.618,0,0,0-1.848.754v5.419a1.177,1.177,0,0,1-1.168,1.226,1.218,1.218,0,0,1-1.21-1.226V37.023a1.193,1.193,0,1,1,2.378,0Z" transform="translate(-34.449 -6.937)"/><path class="a" d="M211.549,37.939a1.276,1.276,0,0,1-1.259-1.3,1.235,1.235,0,0,1,1.259-1.268,1.259,1.259,0,0,1,1.259,1.268,1.293,1.293,0,0,1-1.259,1.3Zm1.193,2.2V47.36a1.193,1.193,0,0,1-1.193,1.226,1.226,1.226,0,0,1-1.193-1.226V40.143a1.177,1.177,0,0,1,1.193-1.226,1.2,1.2,0,0,1,1.193,1.226Z" transform="translate(-36.657 -6.875)"/><path class="a" d="M223.84,47.549a.829.829,0,0,1-.423.829,6.9,6.9,0,0,1-3.753.978c-2.577,0-3.753-1.442-3.753-3.132,0-1.516,1.052-2.9,3.662-2.9a7.722,7.722,0,0,1,1.972.265v-.481c0-.92-.439-1.384-1.657-1.384a5.949,5.949,0,0,0-1.715.3c-1.011.323-1.657-.191-1.657-.92a1.11,1.11,0,0,1,.779-1.085,7.457,7.457,0,0,1,2.618-.447c2.486,0,3.927,1.1,3.927,3.613Zm-2.3-.679v-1.6a5.924,5.924,0,0,0-1.773-.282c-.961,0-1.549.481-1.549,1.152s.621,1.193,1.6,1.193a3.041,3.041,0,0,0,1.723-.464Z" transform="translate(-37.621 -7.595)"/></g></svg>