<svg id="Publications" xmlns="http://www.w3.org/2000/svg" width="24" height="17.999" viewBox="0 0 24 17.999">
  <path id="Path_395" data-name="Path 395" d="M26.725,13.375c0-.15-.15-.3-.375-.375h-.375l.675,12.375a1.242,1.242,0,0,1-.375.9,1.333,1.333,0,0,1-.75.3H25.3a72.263,72.263,0,0,0-7.2-1.125,2.8,2.8,0,0,0-1.95.525,1.21,1.21,0,0,1-.675.225,1.447,1.447,0,0,1-.75-.225,4.19,4.19,0,0,0-1.95-.525A56.292,56.292,0,0,0,5.5,26.575H5.275a.963.963,0,0,1-.75-.3,1.092,1.092,0,0,1-.375-.9L4.9,13H4.525c-.15,0-.3.15-.375.375l-.75,13.5a.3.3,0,0,0,.15.3.569.569,0,0,0,.3.15l9.375-1.05a1.463,1.463,0,0,0,1.425,1.05h1.5a1.463,1.463,0,0,0,1.425-1.05l9.375,1.05c.15,0,.225,0,.3-.075a.39.39,0,0,0,.15-.3Z" transform="translate(-3.4 -9.326)" fill="#786452"/>
  <path id="Path_396" data-name="Path 396" d="M5.875,25.325h0c.15,0,5.7-1.125,7.5-1.125h0a3.78,3.78,0,0,1,1.425.225c-.15-.45-.45-1.35-1.425-1.35h0a33,33,0,0,0-5.775.75H7.375a.963.963,0,0,1-.75-.3,1.092,1.092,0,0,1-.375-.9L6.925,11a.91.91,0,0,0-.375.075.343.343,0,0,0-.3.375L5.5,24.95a.39.39,0,0,0,.15.3A.328.328,0,0,0,5.875,25.325Z" transform="translate(-3.924 -8.826)" fill="#786452"/>
  <path id="Path_397" data-name="Path 397" d="M29.175,23.525a1.333,1.333,0,0,1-.75.3H28.2a33.026,33.026,0,0,0-5.7-.75,1.535,1.535,0,0,0-1.5,1.35,3.78,3.78,0,0,1,1.425-.225h0a74.083,74.083,0,0,1,7.425,1.125c.15,0,.225,0,.3-.075a.569.569,0,0,0,.15-.3l-.75-13.5a.5.5,0,0,0-.3-.375A1.313,1.313,0,0,1,28.875,11l.675,11.625A.913.913,0,0,1,29.175,23.525Z" transform="translate(-7.799 -8.826)" fill="#786452"/>
  <path id="Path_398" data-name="Path 398" d="M7.95,22.35a37.324,37.324,0,0,1,5.85-.75h.075c1.875,0,2.25,2.1,2.25,2.25V9.225A2.756,2.756,0,0,0,13.875,8.1H13.8a26.612,26.612,0,0,0-5.25.75.275.275,0,0,0-.3.3L7.5,21.9a.39.39,0,0,0,.15.3C7.725,22.35,7.8,22.35,7.95,22.35Z" transform="translate(-4.424 -8.1)" fill="#786452"/>
  <path id="Path_399" data-name="Path 399" d="M22.25,21.6h.075a38.828,38.828,0,0,1,5.85.75.451.451,0,0,0,.3-.075.569.569,0,0,0,.15-.3l-.75-12.75a.5.5,0,0,0-.3-.375A28.978,28.978,0,0,0,22.25,8.1,2.756,2.756,0,0,0,20,9.225V23.85A2.346,2.346,0,0,1,22.25,21.6Z" transform="translate(-7.549 -8.1)" fill="#786452"/>
</svg>
