<svg xmlns="http://www.w3.org/2000/svg" width="19.699" height="13.016" viewBox="0 0 19.699 13.016"><defs><style>.a{fill:#d01c65;}</style></defs><path class="a" d="M19.7,6.5H1.836a.916.916,0,0,0-.916.916V18.6a.916.916,0,0,0,.916.916H19.7a.916.916,0,0,0,.916-.916V7.416A.916.916,0,0,0,19.7,6.5M2.926,7.325H18.571a1.23,1.23,0,0,1,.643.175l-8.451,6.529-8.3-6.62a1.23,1.23,0,0,1,.461-.084M1.78,17.468V8.338a.7.7,0,0,1,0-.119l5.97,4.767ZM18.557,18.6H2.926a1.286,1.286,0,0,1-.657-.182L8.6,13.665l2.16,1.706,2.223-1.713,6.242,4.774a1.265,1.265,0,0,1-.636.168m1.146-1.1-5.893-4.509,5.893-4.544Z" transform="translate(-0.92 -6.5)"/></svg>