	<svg version="1.1" id="Layer_1" xmlns="http://www.w3.org/2000/svg" xmlns:xlink="http://www.w3.org/1999/xlink" x="0px" y="0px"
		 viewBox="0 0 40 40" style="enable-background:new 0 0 40 40;" xml:space="preserve">
	<style type="text/css">
		.st0{fill:#786452;}
	</style>
	<g>
		<rect x="7.2" y="15.2" class="st0" width="6.9" height="6.9"/>
		<rect x="16.6" y="15.2" class="st0" width="6.9" height="6.9"/>
		<path class="st0" d="M25.9,22h6.9v-6.9h-6.9V22z M27.4,16.7h3.8v3.8h-3.8V16.7z"/>
		<rect x="7.2" y="24.4" class="st0" width="6.9" height="6.9"/>
		<rect x="25.9" y="24.4" class="st0" width="6.9" height="6.9"/>
		<path class="st0" d="M4.2,35.9h31.6c0.9,0,1.6-0.7,1.6-1.6V5.7c0-0.9-0.7-1.6-1.6-1.6H4.2c-0.9,0-1.6,0.7-1.6,1.6v28.7
			C2.6,35.2,3.3,35.9,4.2,35.9z M20,6.4c1,0,1.9,0.8,1.9,1.9c0,1-0.8,1.9-1.9,1.9c-1,0-1.9-0.9-1.9-1.9C18.1,7.2,19,6.4,20,6.4z
			 M4.6,12.3h30.7v21.6H4.6V12.3z"/>
		<rect x="16.6" y="24.4" class="st0" width="6.9" height="6.9"/>
	</g>
	</svg>
