<svg xmlns="http://www.w3.org/2000/svg" width="20" height="20" viewBox="0 0 20 20"><defs><style>.a{fill:#fff;}</style></defs><g transform="translate(-6.624 -6.623)"><path class="a" d="M126.773,109.466h-14.61a2.7,2.7,0,0,0-2.695,2.695v14.61a2.7,2.7,0,0,0,2.695,2.695h7.206l.012-7.147h-1.857a.438.438,0,0,1-.438-.436l-.009-2.3a.438.438,0,0,1,.438-.44h1.854v-2.226a3.637,3.637,0,0,1,3.882-3.99h1.891a.438.438,0,0,1,.438.438V115.3a.438.438,0,0,1-.438.438h-1.161c-1.253,0-1.5.6-1.5,1.469v1.927h2.754a.438.438,0,0,1,.435.49l-.273,2.3a.438.438,0,0,1-.435.387H122.5l-.013,7.147h4.288a2.7,2.7,0,0,0,2.7-2.7v-14.61a2.7,2.7,0,0,0-2.695-2.695Z" transform="translate(-102.844 -102.843)"/></g></svg>