<svg xmlns="http://www.w3.org/2000/svg" width="20" height="20" viewBox="0 0 20 20"><defs><style>.a{fill:#fff;}</style></defs><g transform="translate(-7.11 -7.647)"><path class="a" d="M17.07,0H2.93A2.933,2.933,0,0,0,0,2.93V17.07A2.933,2.933,0,0,0,2.93,20H17.07A2.933,2.933,0,0,0,20,17.07V2.93A2.933,2.933,0,0,0,17.07,0ZM4.148,17.436a1.721,1.721,0,1,1,1.721-1.721A1.723,1.723,0,0,1,4.148,17.436Zm7.379-1.759c0,.013,0,.026,0,.039s0,.021,0,.032,0,.025-.005.038c-.007.051-.018.1-.03.151l-.008.03c-.008.03-.018.061-.028.091l-.011.03a1.554,1.554,0,0,1-.066.155l-.016.032a1.543,1.543,0,0,1-.182.275c-.016.019-.032.038-.049.057l-.025.027c-.026.028-.054.054-.082.08l-.043.038c-.023.02-.047.038-.071.056l-.03.022c-.034.024-.069.047-.105.069l-.031.018a1.6,1.6,0,0,1-.2.1l-.066.024-.035.011-.039.012-.068.017-.037.009-.027.005-.046.008-.038.005-.037,0-.02,0-.033,0-.024,0c-.032,0-.065,0-.1,0a1.564,1.564,0,0,1-1.562-1.562,4.106,4.106,0,0,0-4.1-4.1,1.563,1.563,0,0,1,0-3.125,7.22,7.22,0,0,1,5.762,2.87h0c.029.038.057.076.085.114l.077.107.018.026.069.1.074.112.01.015.071.113q.038.061.074.123.069.118.134.238c.027.049.052.1.077.148s.04.08.059.12.038.077.055.116l.023.051q.046.1.089.206l.015.036,0,.006c.016.038.031.075.045.113s.031.081.046.121c0,.011.009.022.012.034.014.039.028.078.041.117s.019.055.028.082.027.084.04.126.029.093.042.14l.016.055.026.1.015.057c.018.073.036.146.052.22,0,.021.009.041.013.062.011.052.021.1.031.155s.018.1.026.146l0,.014c0,.029.009.058.014.087s.009.06.013.089.008.06.012.09.005.044.008.066c.007.057.013.114.018.171,0,.025,0,.05.007.075s0,.05.006.075a.047.047,0,0,1,0,.007c0,.048.007.1.009.143,0,0,0,.007,0,.01,0,.031,0,.061,0,.092s0,.055,0,.083c0,.006,0,.012,0,.019,0,.028,0,.056,0,.084s0,.062,0,.093S11.53,15.638,11.527,15.678Zm4.3,1.443a1.564,1.564,0,0,1-1.563-1.562,9.929,9.929,0,0,0-.9-4.147q-.05-.11-.1-.219c-.071-.145-.145-.289-.223-.43q-.088-.16-.182-.316-.063-.1-.128-.207-.1-.154-.2-.305a10.079,10.079,0,0,0-1.181-1.419l-.089-.087-.089-.086-.091-.085-.091-.084-.09-.081-.11-.1-.079-.067-.073-.061-.064-.052-.113-.09L10.4,7.679l-.083-.064c-.079-.06-.158-.118-.238-.175l-.014-.01h0A9.885,9.885,0,0,0,4.305,5.6a1.563,1.563,0,0,1,0-3.125A13.031,13.031,0,0,1,10.067,3.8q.359.176.708.376.291.165.573.346l.113.073q.224.146.443.3c.037.025.073.052.109.079s.073.053.109.08l.107.081q.163.125.323.255l.079.065.094.079.114.1.122.107.094.084.165.151.084.079.078.075.079.077.1.1q.116.116.229.234t.222.239c.073.08.145.161.215.243q.159.185.311.373t.3.383q.144.193.28.392t.265.4q.128.2.249.409.08.138.157.277l.076.14q.076.141.147.283a13.028,13.028,0,0,1,1.387,5.878A1.564,1.564,0,0,1,15.829,17.12Z" transform="translate(7.11 7.647)"/></g></svg>