<svg xmlns="http://www.w3.org/2000/svg" width="15" height="13.345" viewBox="0 0 15 13.345"><defs><style>.a{fill:#fff;}</style></defs><path class="a" d="M13.811,1.306A4.034,4.034,0,0,0,10.81,0,3.774,3.774,0,0,0,8.453.814a4.822,4.822,0,0,0-.953.995A4.819,4.819,0,0,0,6.548.814,3.773,3.773,0,0,0,4.191,0a4.034,4.034,0,0,0-3,1.306A4.689,4.689,0,0,0,0,4.508,5.583,5.583,0,0,0,1.488,8.163a31.724,31.724,0,0,0,3.724,3.5c.516.44,1.1.938,1.708,1.469a.881.881,0,0,0,1.16,0c.607-.531,1.193-1.03,1.709-1.47a31.706,31.706,0,0,0,3.724-3.5A5.582,5.582,0,0,0,15,4.508a4.688,4.688,0,0,0-1.19-3.2Zm0,0" transform="translate(0)"/></svg>