<svg xmlns="http://www.w3.org/2000/svg" width="32" height="32" viewBox="0 0 32 32"><defs><style>.a{fill:#4376b1;}.b{fill:#fff;}</style></defs><g transform="translate(0 0.424)"><circle class="a" cx="16" cy="16" r="16" transform="translate(0 -0.424)"/><path class="b" d="M123.611,109.468H110.875a1.406,1.406,0,0,0-1.406,1.406V123.61a1.407,1.407,0,0,0,1.406,1.406h12.735a1.407,1.407,0,0,0,1.406-1.406V110.874a1.406,1.406,0,0,0-1.406-1.406Zm-9.331,13.426a.409.409,0,0,1-.409.409h-1.742a.409.409,0,0,1-.409-.409v-7.3a.409.409,0,0,1,.409-.409h1.742a.409.409,0,0,1,.409.409v7.3Zm-1.28-8.4a1.655,1.655,0,1,1,1.655-1.655A1.655,1.655,0,0,1,113,114.492Zm10.386,8.435a.376.376,0,0,1-.376.376h-1.87a.376.376,0,0,1-.376-.376V119.5c0-.511.15-2.239-1.335-2.239-1.152,0-1.386,1.183-1.433,1.714v3.951a.376.376,0,0,1-.376.376H115.81a.377.377,0,0,1-.376-.376v-7.369a.377.377,0,0,1,.376-.376h1.808a.376.376,0,0,1,.376.376v.637a2.567,2.567,0,0,1,2.414-1.136c2.994,0,2.977,2.8,2.977,4.334v3.535h0Z" transform="translate(-101.243 -101.813)"/></g></svg>