<svg xmlns="http://www.w3.org/2000/svg" width="20" height="20" viewBox="0 0 20 20"><defs><style>.a{fill:#fff;}</style></defs><g transform="translate(-20.032 -20.031)"><path class="a" d="M127.66,109.468H111.278a1.809,1.809,0,0,0-1.809,1.809v16.382a1.809,1.809,0,0,0,1.809,1.809H127.66a1.809,1.809,0,0,0,1.809-1.809V111.277a1.809,1.809,0,0,0-1.809-1.809Zm-12,17.269a.526.526,0,0,1-.527.527H112.89a.527.527,0,0,1-.527-.527v-9.395a.527.527,0,0,1,.527-.527h2.241a.527.527,0,0,1,.527.527v9.395Zm-1.647-10.807a2.129,2.129,0,1,1,2.129-2.129,2.129,2.129,0,0,1-2.129,2.129ZM127.37,126.78a.484.484,0,0,1-.484.484h-2.405a.484.484,0,0,1-.484-.484v-4.407c0-.657.193-2.881-1.718-2.881-1.482,0-1.783,1.522-1.843,2.2v5.083a.484.484,0,0,1-.484.484h-2.326a.484.484,0,0,1-.484-.484V117.3a.484.484,0,0,1,.484-.484h2.326a.484.484,0,0,1,.484.484v.82a3.3,3.3,0,0,1,3.105-1.462c3.851,0,3.829,3.6,3.829,5.575v4.547h0Z" transform="translate(-89.437 -89.437)"/></g></svg>