<svg xmlns="http://www.w3.org/2000/svg" width="20" height="16.636" viewBox="0 0 20 16.636"><defs><style>.a{fill:#fff;}</style></defs><path class="a" d="M129.148,136.049a7.9,7.9,0,0,1-1.379.465,4.3,4.3,0,0,0,1.135-1.807.226.226,0,0,0-.33-.263,7.954,7.954,0,0,1-2.108.871.533.533,0,0,1-.132.016.559.559,0,0,1-.369-.141,4.312,4.312,0,0,0-2.853-1.077,4.608,4.608,0,0,0-1.366.211,4.178,4.178,0,0,0-2.816,3.01,4.6,4.6,0,0,0-.1,1.588.155.155,0,0,1-.039.121.16.16,0,0,1-.119.054h-.015a11.306,11.306,0,0,1-7.771-4.152.226.226,0,0,0-.37.029,4.317,4.317,0,0,0,.7,5.241,3.867,3.867,0,0,1-.984-.381.226.226,0,0,0-.335.195,4.318,4.318,0,0,0,2.519,3.977h-.092a3.859,3.859,0,0,1-.726-.069.226.226,0,0,0-.257.29,4.321,4.321,0,0,0,3.414,2.939,7.956,7.956,0,0,1-4.456,1.353h-.5a.33.33,0,0,0-.323.249.341.341,0,0,0,.164.377,11.834,11.834,0,0,0,5.947,1.6,11.994,11.994,0,0,0,5.082-1.078,11.222,11.222,0,0,0,3.718-2.786,12.215,12.215,0,0,0,2.277-3.813,12.047,12.047,0,0,0,.774-4.173v-.066a.734.734,0,0,1,.275-.571,8.526,8.526,0,0,0,1.714-1.882.225.225,0,0,0-.279-.331Z" transform="translate(-109.466 -134.114)"/></svg>