<svg xmlns="http://www.w3.org/2000/svg" width="16.866" height="14.029" viewBox="0 0 16.866 14.029"><defs><style>.a{fill:#fff;}</style></defs><path class="a" d="M126.063,135.746a6.664,6.664,0,0,1-1.163.392,3.624,3.624,0,0,0,.957-1.524.19.19,0,0,0-.278-.221,6.708,6.708,0,0,1-1.778.734.449.449,0,0,1-.111.014.472.472,0,0,1-.311-.119,3.636,3.636,0,0,0-2.406-.908,3.886,3.886,0,0,0-1.152.178,3.523,3.523,0,0,0-2.374,2.538,3.879,3.879,0,0,0-.086,1.339.131.131,0,0,1-.033.1.135.135,0,0,1-.1.046h-.013a9.534,9.534,0,0,1-6.553-3.5.19.19,0,0,0-.312.024,3.641,3.641,0,0,0,.592,4.42,3.261,3.261,0,0,1-.829-.321.19.19,0,0,0-.282.164,3.641,3.641,0,0,0,2.124,3.354h-.078a3.254,3.254,0,0,1-.613-.058.19.19,0,0,0-.217.245,3.644,3.644,0,0,0,2.879,2.479,6.709,6.709,0,0,1-3.758,1.141h-.42a.278.278,0,0,0-.272.21.288.288,0,0,0,.138.318,9.979,9.979,0,0,0,5.015,1.352,10.114,10.114,0,0,0,4.285-.909,9.463,9.463,0,0,0,3.136-2.35,10.3,10.3,0,0,0,1.92-3.216,10.159,10.159,0,0,0,.653-3.519v-.055a.619.619,0,0,1,.232-.482,7.19,7.19,0,0,0,1.446-1.587.19.19,0,0,0-.235-.279Z" transform="translate(-109.466 -134.114)"/></svg>